<svg width="45" height="45" viewBox="0 0 45 45" fill="none" xmlns="http://www.w3.org/2000/svg">
<rect x="1.5" y="1.5" width="42" height="42" rx="21" fill="white" stroke="#2B4770" stroke-width="3"/>
<path d="M28.9999 19H26.7899C26.5973 18.2718 26.2569 17.591 25.7899 17H28.9999C29.2651 17 29.5195 16.8946 29.707 16.7071C29.8946 16.5196 29.9999 16.2652 29.9999 16C29.9999 15.7348 29.8946 15.4804 29.707 15.2929C29.5195 15.1054 29.2651 15 28.9999 15H17.9999C17.7347 15 17.4804 15.1054 17.2928 15.2929C17.1053 15.4804 16.9999 15.7348 16.9999 16C16.9999 16.2652 17.1053 16.5196 17.2928 16.7071C17.4804 16.8946 17.7347 17 17.9999 17H21.4999C22.1602 17.0023 22.8063 17.1913 23.3637 17.5452C23.9211 17.8991 24.367 18.4035 24.6499 19H17.9999C17.7347 19 17.4804 19.1054 17.2928 19.2929C17.1053 19.4804 16.9999 19.7348 16.9999 20C16.9999 20.2652 17.1053 20.5196 17.2928 20.7071C17.4804 20.8946 17.7347 21 17.9999 21H24.9999C24.88 21.8306 24.4657 22.5905 23.8324 23.1411C23.1992 23.6918 22.3891 23.9966 21.5499 24H17.9999C17.9534 23.9953 17.9065 23.9953 17.8599 24C17.7937 23.9897 17.7262 23.9897 17.6599 24C17.5918 24.0232 17.5277 24.057 17.4699 24.1L17.3499 24.17C17.2951 24.2195 17.248 24.2768 17.2099 24.34C17.1764 24.3843 17.1463 24.4311 17.1199 24.48C17.111 24.5397 17.111 24.6003 17.1199 24.66C17.0487 24.7597 17.0071 24.8776 16.9999 25C16.9952 25.0465 16.9952 25.0935 16.9999 25.14C16.9896 25.2063 16.9896 25.2737 16.9999 25.34C17.0231 25.4082 17.0569 25.4723 17.0999 25.53C17.0999 25.53 17.0999 25.61 17.1699 25.65L23.1699 32.65C23.3423 32.8516 23.5877 32.9764 23.8521 32.997C24.1166 33.0177 24.3784 32.9324 24.5799 32.76C24.7815 32.5876 24.9063 32.3422 24.9269 32.0778C24.9476 31.8134 24.8623 31.5516 24.6899 31.35L20.1799 26H21.4999C22.876 26.0057 24.2042 25.4954 25.2224 24.5697C26.2406 23.6441 26.8748 22.3704 26.9999 21H28.9999C29.2651 21 29.5195 20.8946 29.707 20.7071C29.8946 20.5196 29.9999 20.2652 29.9999 20C29.9999 19.7348 29.8946 19.4804 29.707 19.2929C29.5195 19.1054 29.2651 19 28.9999 19Z" fill="#56BA4B"/>
<rect x="6.80176" y="9.96143" width="2" height="40" transform="rotate(-46.5114 6.80176 9.96143)" fill="#56BA4B"/>
</svg>
