<svg width="44" height="53" viewBox="0 0 44 53" fill="none" xmlns="http://www.w3.org/2000/svg">
<g clip-path="url(#clip0_47_5630)">
<path d="M23.9772 20.2302C26.8734 16.3012 29.686 12.5115 32.6101 8.61033C31.6911 7.9137 30.7443 7.32853 29.9645 6.57616C29.5189 6.13031 29.0177 5.40581 29.0734 4.87637C29.1569 4.34693 29.8253 3.70602 30.3822 3.4831C33.5012 2.31275 36.6759 1.226 39.8227 0.167116C41.3544 -0.362327 42.3012 0.334308 42.2455 1.9505C42.1341 5.29435 42.0227 8.6382 41.8278 11.982C41.7164 13.849 40.5189 14.3506 38.9873 13.2639C38.124 12.6508 37.2886 12.0099 36.3417 11.3133C34.0025 14.4899 31.7189 17.5551 29.4075 20.6482C28.4886 21.8743 27.5974 23.1282 26.6784 24.3264C25.3974 26.0262 24.2835 26.1655 22.5569 24.8837C19.9113 22.9053 17.2936 20.9268 14.5924 18.8927C11.6683 22.8217 8.7721 26.6671 5.90375 30.5404C5.48603 31.0977 5.09615 31.6829 4.65058 32.2123C3.64805 33.4941 2.39489 33.7449 1.28096 32.8811C0.278432 32.1009 0.139191 30.7633 1.05818 29.5373C3.03539 26.8343 5.04046 24.1592 7.01767 21.4842C8.66071 19.2828 10.2759 17.0814 11.9189 14.8801C13.2278 13.1245 14.2025 12.9852 16.0126 14.2949C18.6025 16.2455 21.2202 18.1682 23.9772 20.2302Z" fill="#56BA4B"/>
<path d="M44 38.3428C44 42.3833 44 46.4237 44 50.4642C44 52.3591 43.3874 52.9721 41.5216 52.9721C39.3773 52.9721 37.2608 53 35.1165 52.9721C33.6684 52.9443 32.9722 52.3033 32.9443 50.8265C32.9165 42.3833 32.9165 33.9122 32.9443 25.469C32.9443 23.9921 33.6405 23.3791 35.1165 23.3791C37.2608 23.3512 39.3773 23.3512 41.5216 23.3791C43.3595 23.3791 43.9722 24.02 43.9722 25.9427C44 30.0668 44 34.1908 44 38.3428Z" fill="#223F69"/>
<path d="M27.514 41.8538C27.514 44.7239 27.514 47.594 27.514 50.492C27.514 52.4147 26.9013 52.9999 25.0633 53.0278C22.919 53.0278 20.8026 53.0557 18.6583 53.0278C17.1266 52.9999 16.4583 52.359 16.4583 50.8264C16.4304 44.8911 16.4304 38.9558 16.4583 33.0204C16.4583 31.4878 17.1266 30.7633 18.6304 30.7633C20.8583 30.7355 23.0861 30.7355 25.314 30.7633C26.8456 30.7912 27.514 31.46 27.514 32.9926C27.5418 35.9184 27.514 38.8722 27.514 41.8538Z" fill="#223F69"/>
<path d="M4.78337e-05 45.4764C4.78337e-05 43.7209 -0.0278003 41.9375 4.78337e-05 40.182C0.0278959 38.733 0.668402 38.0364 2.14435 38.0085C4.3722 37.9528 6.60005 37.9806 8.8279 38.0085C10.3038 38.0364 11 38.6773 11 40.1263C11.0279 43.693 11.0279 47.2877 11 50.8544C10.9722 52.3034 10.276 52.9444 8.80005 52.9444C6.6279 52.9722 4.4279 52.9722 2.25574 52.9444C0.668402 52.9165 0.0278959 52.2477 4.78337e-05 50.6037C4.78337e-05 48.9317 4.78337e-05 47.2041 4.78337e-05 45.4764Z" fill="#223F69"/>
<path d="M38.7199 4.71098H38.0716C38.0151 4.49656 37.9153 4.29611 37.7783 4.12209H38.7199C38.7977 4.12209 38.8723 4.09107 38.9273 4.03585C38.9823 3.98063 39.0132 3.90574 39.0132 3.82765C39.0132 3.74956 38.9823 3.67466 38.9273 3.61944C38.8723 3.56422 38.7977 3.5332 38.7199 3.5332H35.4932C35.4154 3.5332 35.3408 3.56422 35.2858 3.61944C35.2308 3.67466 35.1999 3.74956 35.1999 3.82765C35.1999 3.90574 35.2308 3.98063 35.2858 4.03585C35.3408 4.09107 35.4154 4.12209 35.4932 4.12209H36.5199C36.7136 4.12277 36.9031 4.17843 37.0666 4.28263C37.2301 4.38684 37.3609 4.53533 37.4439 4.71098H35.4932C35.4154 4.71098 35.3408 4.742 35.2858 4.79722C35.2308 4.85244 35.1999 4.92733 35.1999 5.00543C35.1999 5.08352 35.2308 5.15841 35.2858 5.21363C35.3408 5.26885 35.4154 5.29987 35.4932 5.29987H37.5466C37.5114 5.54444 37.3899 5.76818 37.2041 5.93032C37.0183 6.09246 36.7807 6.18221 36.5346 6.1832H35.4932C35.4796 6.18183 35.4658 6.18183 35.4522 6.1832C35.4327 6.18017 35.4129 6.18017 35.3935 6.1832C35.3735 6.19004 35.3547 6.19997 35.3378 6.21265L35.3026 6.23326C35.2865 6.24782 35.2727 6.26469 35.2615 6.28331C35.2517 6.29637 35.2429 6.31015 35.2351 6.32454C35.2325 6.34211 35.2325 6.35997 35.2351 6.37754C35.2142 6.40691 35.202 6.44161 35.1999 6.47765C35.1985 6.49135 35.1985 6.50516 35.1999 6.51887C35.1969 6.53838 35.1969 6.55825 35.1999 6.57776C35.2067 6.59783 35.2166 6.61671 35.2292 6.6337C35.2292 6.6337 35.2292 6.65726 35.2498 6.66904L37.0098 8.73015C37.0603 8.7895 37.1323 8.82625 37.2099 8.83233C37.2875 8.8384 37.3642 8.8133 37.4234 8.76254C37.4825 8.71178 37.5191 8.63952 37.5252 8.56166C37.5312 8.4838 37.5062 8.40672 37.4556 8.34737L36.1327 6.77209H36.5199C36.9235 6.77377 37.3132 6.6235 37.6118 6.35095C37.9105 6.0784 38.0965 5.70337 38.1332 5.29987H38.7199C38.7977 5.29987 38.8723 5.26885 38.9273 5.21363C38.9823 5.15841 39.0132 5.08352 39.0132 5.00543C39.0132 4.92733 38.9823 4.85244 38.9273 4.79722C38.8723 4.742 38.7977 4.71098 38.7199 4.71098Z" fill="white"/>
</g>
<defs>
<clipPath id="clip0_47_5630">
<rect width="44" height="53" fill="white"/>
</clipPath>
</defs>
</svg>
