<svg width="44" height="52" viewBox="0 0 44 52" fill="none" xmlns="http://www.w3.org/2000/svg">
<path d="M29 27.1667H26.4217C26.197 26.3171 25.7998 25.5228 25.255 24.8333H29C29.3094 24.8333 29.6062 24.7104 29.825 24.4916C30.0437 24.2728 30.1667 23.9761 30.1667 23.6667C30.1667 23.3572 30.0437 23.0605 29.825 22.8417C29.6062 22.6229 29.3094 22.5 29 22.5H16.1667C15.8572 22.5 15.5605 22.6229 15.3417 22.8417C15.1229 23.0605 15 23.3572 15 23.6667C15 23.9761 15.1229 24.2728 15.3417 24.4916C15.5605 24.7104 15.8572 24.8333 16.1667 24.8333H20.25C21.0203 24.836 21.7741 25.0566 22.4244 25.4694C23.0746 25.8823 23.5949 26.4707 23.925 27.1667H16.1667C15.8572 27.1667 15.5605 27.2896 15.3417 27.5084C15.1229 27.7272 15 28.0239 15 28.3333C15 28.6428 15.1229 28.9395 15.3417 29.1583C15.5605 29.3771 15.8572 29.5 16.1667 29.5H24.3333C24.1935 30.469 23.7101 31.3556 22.9713 31.998C22.2325 32.6405 21.2874 32.9961 20.3083 33H16.1667C16.1124 32.9945 16.0576 32.9945 16.0033 33C15.926 32.988 15.8473 32.988 15.77 33C15.6905 33.0271 15.6157 33.0665 15.5483 33.1167L15.4083 33.1983C15.3444 33.256 15.2894 33.3229 15.245 33.3967C15.2059 33.4484 15.1708 33.503 15.14 33.56C15.1296 33.6296 15.1296 33.7004 15.14 33.77C15.0569 33.8864 15.0083 34.0239 15 34.1667C14.9945 34.221 14.9945 34.2757 15 34.33C14.988 34.4073 14.988 34.486 15 34.5633C15.0271 34.6429 15.0664 34.7177 15.1167 34.785C15.1167 34.785 15.1167 34.8783 15.1983 34.925L22.1983 43.0917C22.3995 43.3268 22.6858 43.4725 22.9943 43.4965C23.3027 43.5206 23.6082 43.4211 23.8433 43.22C24.0785 43.0189 24.2241 42.7326 24.2482 42.4241C24.2723 42.1156 24.1728 41.8102 23.9717 41.575L18.71 35.3333H20.25C21.8554 35.34 23.405 34.7446 24.5929 33.6647C25.7808 32.5848 26.5207 31.0988 26.6667 29.5H29C29.3094 29.5 29.6062 29.3771 29.825 29.1583C30.0437 28.9395 30.1667 28.6428 30.1667 28.3333C30.1667 28.0239 30.0437 27.7272 29.825 27.5084C29.6062 27.2896 29.3094 27.1667 29 27.1667Z" fill="#56BA4B"/>
<path d="M12.9103 7.06016L17.6857 12.7221L17.1698 13.3057C7.34133 15.5392 0 24.4334 0 35.0661C0 44.4136 7.48702 52 16.7121 52H27.2879C36.5129 52 44 44.4154 44 35.0679C44.0171 24.4334 36.6758 15.5392 26.8474 13.3057C26.8873 12.9387 26.8218 12.5678 26.6588 12.2376L30.7211 7.52563L30.9834 7.11574C31.2896 6.43896 31.368 5.67898 31.2063 4.95269C31.0447 4.22639 30.6521 3.574 30.0889 3.09586C29.5257 2.61771 28.823 2.34028 28.089 2.30625C27.355 2.27221 26.6303 2.48344 26.0263 2.90746L24.5814 1.17066C24.2572 0.803117 23.8603 0.508907 23.4165 0.307202C22.9726 0.105497 22.4918 0.000824168 22.0053 4.84738e-06C21.5189 -0.000814473 21.0377 0.102238 20.5932 0.302447C20.1487 0.502656 19.7508 0.795527 19.4255 1.16197L17.9119 2.87446C17.3095 2.44162 16.5832 2.22197 15.8452 2.24947C15.1072 2.27698 14.3987 2.55011 13.8293 3.02662C13.2599 3.50313 12.8613 4.15647 12.6952 4.88559C12.5291 5.6147 12.6047 6.37897 12.9103 7.06016ZM19.422 9.46564L16.515 6.0615C17.1904 6.39125 17.9545 6.48488 18.688 6.32776C19.4215 6.17063 20.0829 5.77161 20.5687 5.1931L21.94 3.3903L23.4621 5.21741C23.9367 5.77663 24.5769 6.16549 25.2873 6.32605C25.9977 6.48661 26.7403 6.41026 27.4044 6.1084L24.5111 9.46564H19.422ZM3.42812 35.0661C3.42812 24.6662 11.7448 16.2392 22.0086 16.2392C32.2724 16.2392 40.589 24.6662 40.5718 35.0627V35.0661C40.5705 38.6356 39.1705 42.0585 36.6796 44.5824C34.1886 47.1064 30.8106 48.525 27.2879 48.5264H16.7121C13.1894 48.525 9.81135 47.1064 7.32042 44.5824C4.82948 42.0585 3.42949 38.6356 3.42812 35.0661Z" fill="#2B4770"/>
</svg>
