<?xml version="1.0" encoding="utf-8"?>
<!-- Generator: Adobe Illustrator 23.1.0, SVG Export Plug-In . SVG Version: 6.00 Build 0)  -->
<svg version="1.1" id="Layer_1" xmlns="http://www.w3.org/2000/svg" xmlns:xlink="http://www.w3.org/1999/xlink" x="0px" y="0px"
	 viewBox="0 0 43 46" style="enable-background:new 0 0 43 46;" xml:space="preserve">
<style type="text/css">
	.st0{fill:#56BA4B;}
	.st1{fill:#2B4770;stroke:#2B4770;stroke-width:0.5;}
</style>
<path class="st0" d="M27.3,20.8H25c-0.2-0.8-0.5-1.5-1-2.1h3.3c0.3,0,0.5-0.1,0.7-0.3s0.3-0.5,0.3-0.7c0-0.3-0.1-0.5-0.3-0.7
	c-0.2-0.2-0.5-0.3-0.7-0.3H16c-0.3,0-0.5,0.1-0.7,0.3c-0.2,0.2-0.3,0.5-0.3,0.7c0,0.3,0.1,0.5,0.3,0.7c0.2,0.2,0.5,0.3,0.7,0.3h3.6
	c0.7,0,1.3,0.2,1.9,0.6c0.6,0.4,1,0.9,1.3,1.5H16c-0.3,0-0.5,0.1-0.7,0.3c-0.2,0.2-0.3,0.5-0.3,0.7c0,0.3,0.1,0.5,0.3,0.7
	c0.2,0.2,0.5,0.3,0.7,0.3h7.2c-0.1,0.9-0.5,1.6-1.2,2.2c-0.6,0.6-1.5,0.9-2.3,0.9H16c0,0-0.1,0-0.1,0c-0.1,0-0.1,0-0.2,0
	c-0.1,0-0.1,0.1-0.2,0.1l-0.1,0.1c-0.1,0.1-0.1,0.1-0.1,0.2c0,0-0.1,0.1-0.1,0.1c0,0.1,0,0.1,0,0.2C15.1,26.8,15,26.9,15,27
	c0,0,0,0.1,0,0.1c0,0.1,0,0.1,0,0.2c0,0.1,0.1,0.1,0.1,0.2c0,0,0,0.1,0.1,0.1l6.2,7.3c0.2,0.2,0.4,0.3,0.7,0.4
	c0.3,0,0.5-0.1,0.7-0.2c0.2-0.2,0.3-0.4,0.4-0.7c0-0.3-0.1-0.5-0.2-0.8l-4.6-5.5h1.4c1.4,0,2.8-0.5,3.8-1.5c1-1,1.7-2.3,1.8-3.7h2.1
	c0.3,0,0.5-0.1,0.7-0.3s0.3-0.5,0.3-0.7c0-0.3-0.1-0.5-0.3-0.7S27.6,20.8,27.3,20.8z"/>
<path class="st1" d="M17.2,6.4c-1.3-0.6-2.5-1.2-3.6-1.7c-0.7-0.3-1.2-0.8-0.8-1.7c0.4-0.8,1.1-0.7,1.8-0.4c2.4,1.1,4.9,2.3,7.3,3.4
	c1.3,0.6,1.4,1.5,0.2,2.4c-2.2,1.6-4.4,3.1-6.6,4.6c-0.7,0.5-1.4,0.7-1.9-0.1c-0.5-0.8,0-1.3,0.6-1.8c1.1-0.7,2.1-1.5,3.1-2.4
	C17,8.9,16.7,8.9,16.5,9C8.1,11.1,3.1,18,3.6,26.7c0.5,8.2,6.5,14.5,14.8,15.5c9.8,1.2,18.6-6.3,19-16.2c0-0.1,0-0.3,0-0.4
	c0-0.8,0.3-1.3,1.2-1.3c0.9,0,1.2,0.6,1.1,1.4c-0.2,1.5-0.3,3-0.6,4.5c-2.3,9-10.7,15-20.1,14.3C9.7,43.9,2.6,37.1,1.5,27.7
	C0.3,17.9,6,9.5,15.5,6.9C16,6.8,16.5,6.6,17.2,6.4z"/>
</svg>
