<svg width="51" height="44" viewBox="0 0 51 44" fill="none" xmlns="http://www.w3.org/2000/svg">
<g clip-path="url(#clip0_47_5625)">
<path d="M44.4438 44C43.9731 43.6709 43.6418 43.4457 43.3105 43.2205C38.6377 39.9638 33.9474 36.6898 29.2572 33.4504C28.9608 33.2425 28.5423 33.1213 28.1762 33.1213C21.1146 33.1039 14.0356 33.1039 6.97411 33.1039C3.55667 33.1039 0.679747 30.7307 0.104362 27.4394C0.0171826 26.9717 0.0346185 26.4866 0.0346185 26.0189C0.0346185 19.7134 0.121798 13.4079 -0.000253263 7.10236C-0.0874327 2.8063 3.45205 0 7.1659 0C18.6562 0.0173228 30.1464 0 41.6192 0.0173228C42.9444 0.0173228 44.2869 -0.0173228 45.5772 0.225197C48.8551 0.866142 50.9474 3.51654 50.9649 6.84252C50.9649 13.2866 50.8951 19.7307 50.9997 26.1575C51.0521 29.9165 48.21 32.5843 45.0018 33.0346C44.8274 33.052 44.6705 33.1039 44.4613 33.1386C44.4438 36.7071 44.4438 40.2756 44.4438 44ZM41.41 30.0378C42.4736 30.0378 43.4849 30.1071 44.4962 30.0205C46.4664 29.8646 47.9136 28.3228 47.931 26.4346C47.9485 19.852 47.9485 13.252 47.9136 6.66929C47.9136 5.9937 47.6521 5.24882 47.2859 4.67717C46.4315 3.39528 45.1064 3.01417 43.6069 3.01417C31.5587 3.0315 19.5105 3.01417 7.46231 3.01417C7.18334 3.01417 6.90436 3.01417 6.60795 3.04882C4.55052 3.22205 3.06846 4.7811 3.06846 6.8252C3.05103 13.3039 3.05103 19.7827 3.0859 26.2787C3.0859 26.9717 3.31257 27.7512 3.67872 28.3402C4.49821 29.674 5.85821 30.0898 7.37513 30.0898C14.5762 30.0898 21.7772 30.0724 28.9782 30.1071C29.4315 30.1071 29.9721 30.263 30.3382 30.5228C33.8254 32.9134 37.2951 35.3386 40.7649 37.7638C40.9567 37.885 41.1485 38.0063 41.4274 38.1795C41.41 35.4252 41.41 32.7921 41.41 30.0378Z" fill="#2B4770"/>
<path d="M27.9672 17.1843C24.9856 17.1843 22.0215 17.1843 19.04 17.1843C18.8482 17.1843 18.639 17.2016 18.4472 17.1669C17.9067 17.0803 17.5754 16.7339 17.5579 16.2142C17.5405 15.6772 17.8544 15.3134 18.3949 15.2268C18.6215 15.1921 18.8656 15.1921 19.1097 15.1921C25.0554 15.1921 31.0185 15.1921 36.9641 15.1921C37.1733 15.1921 37.4 15.1921 37.6092 15.2268C38.1672 15.3134 38.5508 15.7465 38.4985 16.2488C38.4461 16.8205 38.0974 17.1496 37.522 17.2016C37.3477 17.2189 37.1733 17.2016 36.999 17.2016C34 17.1843 30.9836 17.1843 27.9672 17.1843Z" fill="#56BA4B"/>
<path d="M24.4451 10.3417C21.1497 10.3417 17.8369 10.3417 14.5415 10.3417C13.9835 10.3417 13.5651 10.1685 13.3733 9.61418C13.1989 9.05985 13.5825 8.47087 14.1928 8.38426C14.4194 8.34961 14.6635 8.34961 14.9076 8.34961C21.2717 8.34961 27.6358 8.34961 33.9999 8.34961C34.1917 8.34961 34.3835 8.34961 34.5928 8.36693C35.1856 8.43622 35.5692 8.83465 35.5517 9.38898C35.5343 9.94331 35.1507 10.3244 34.5405 10.3417C33.5989 10.3591 32.6748 10.3417 31.7333 10.3417C29.3271 10.3417 26.8861 10.3417 24.4451 10.3417Z" fill="#56BA4B"/>
<path d="M23.242 24.0441C20.5046 24.0441 17.7671 24.0441 15.0297 24.0441C14.8553 24.0441 14.681 24.0441 14.5066 24.0441C13.7743 23.9921 13.3384 23.5764 13.3559 22.9874C13.3907 22.4158 13.8092 22.0347 14.5241 22.0347C20.3302 22.0347 26.1364 22.0347 31.9425 22.0347C32.6923 22.0347 33.1282 22.4504 33.1107 23.0567C33.1107 23.6803 32.6574 24.0614 31.8379 24.0614C28.9784 24.0441 26.1015 24.0441 23.242 24.0441Z" fill="#56BA4B"/>
</g>
<defs>
<clipPath id="clip0_47_5625">
<rect width="51" height="44" fill="white"/>
</clipPath>
</defs>
</svg>
