<svg width="36" height="48" viewBox="0 0 36 48" fill="none" xmlns="http://www.w3.org/2000/svg">
<path d="M0 42V6C0 4.4087 0.632141 2.88258 1.75736 1.75736C2.88258 0.632141 4.4087 0 6 0H30C31.5913 0 33.1174 0.632141 34.2426 1.75736C35.3679 2.88258 36 4.4087 36 6V39C36 39.7957 35.6839 40.5587 35.1213 41.1213C34.5587 41.6839 33.7957 42 33 42H3C3 42.7957 3.31607 43.5587 3.87868 44.1213C4.44129 44.6839 5.20435 45 6 45H34.5C34.8978 45 35.2794 45.158 35.5607 45.4393C35.842 45.7206 36 46.1022 36 46.5C36 46.8978 35.842 47.2794 35.5607 47.5607C35.2794 47.842 34.8978 48 34.5 48H6C4.4087 48 2.88258 47.3679 1.75736 46.2426C0.632141 45.1174 0 43.5913 0 42ZM33 6C33 5.20435 32.6839 4.44129 32.1213 3.87868C31.5587 3.31607 30.7957 3 30 3H6C5.20435 3 4.44129 3.31607 3.87868 3.87868C3.31607 4.44129 3 5.20435 3 6V39H33V6ZM9.123 18H12.042C12.177 15.681 12.618 13.545 13.302 11.823C12.2041 12.4941 11.2628 13.3926 10.5414 14.4582C9.82002 15.5237 9.33534 16.7314 9.12 18H9.123ZM6 19.5C6 16.3174 7.26428 13.2652 9.51472 11.0147C11.7652 8.76428 14.8174 7.5 18 7.5C21.1826 7.5 24.2348 8.76428 26.4853 11.0147C28.7357 13.2652 30 16.3174 30 19.5C30 22.6826 28.7357 25.7348 26.4853 27.9853C24.2348 30.2357 21.1826 31.5 18 31.5C14.8174 31.5 11.7652 30.2357 9.51472 27.9853C7.26428 25.7348 6 22.6826 6 19.5ZM26.877 18C26.6624 16.7319 26.1786 15.5245 25.4583 14.459C24.7379 13.3936 23.7978 12.4947 22.701 11.823C23.382 13.545 23.823 15.681 23.958 18H26.877ZM23.958 21C23.823 23.319 23.382 25.458 22.698 27.177C23.7959 26.5059 24.7372 25.6074 25.4586 24.5418C26.18 23.4763 26.6647 22.2686 26.88 21H23.961H23.958ZM20.952 18C20.814 15.879 20.385 14.028 19.803 12.666C19.443 11.826 19.053 11.244 18.699 10.893C18.348 10.548 18.114 10.5 18 10.5C17.886 10.5 17.652 10.548 17.301 10.89C16.947 11.244 16.557 11.826 16.197 12.666C15.615 14.028 15.186 15.876 15.048 18H20.952ZM15.048 21C15.186 23.121 15.615 24.972 16.197 26.334C16.557 27.174 16.947 27.756 17.301 28.107C17.652 28.452 17.886 28.5 18 28.5C18.114 28.5 18.348 28.452 18.699 28.11C19.053 27.756 19.443 27.171 19.803 26.334C20.385 24.972 20.811 23.124 20.952 21H15.048ZM12.042 21H9.123C9.33914 22.2676 9.8235 23.4744 10.5437 24.5396C11.2639 25.6049 12.2033 26.5041 13.299 27.177C12.618 25.458 12.177 23.319 12.042 21Z" fill="#2B4770"/>
</svg>
